<svg width="119" height="44" viewBox="0 0 119 44" fill="none" xmlns="http://www.w3.org/2000/svg">
<path d="M57.517 16.5455H62.0682L66.875 28.2727H67.0795L71.8864 16.5455H76.4375V34H72.858V22.6392H72.7131L68.196 33.9148H65.7585L61.2415 22.5966H61.0966V34H57.517V16.5455ZM83.1683 16.5455V34H79.478V16.5455H83.1683ZM95.6733 21.5653C95.6051 20.8778 95.3125 20.3437 94.7955 19.9631C94.2784 19.5824 93.5767 19.392 92.6903 19.392C92.0881 19.392 91.5795 19.4773 91.1648 19.6477C90.75 19.8125 90.4318 20.0426 90.2102 20.3381C89.9943 20.6335 89.8864 20.9688 89.8864 21.3438C89.875 21.6562 89.9403 21.929 90.0824 22.1619C90.2301 22.3949 90.4318 22.5966 90.6875 22.767C90.9432 22.9318 91.2386 23.0767 91.5739 23.2017C91.9091 23.321 92.267 23.4233 92.6477 23.5085L94.2159 23.8835C94.9773 24.054 95.6761 24.2812 96.3125 24.5653C96.9489 24.8494 97.5 25.1989 97.9659 25.6136C98.4318 26.0284 98.7926 26.517 99.0483 27.0795C99.3097 27.642 99.4432 28.2869 99.4489 29.0142C99.4432 30.0824 99.1705 31.0085 98.6307 31.7926C98.0966 32.571 97.3239 33.1761 96.3125 33.608C95.3068 34.0341 94.0938 34.2472 92.6733 34.2472C91.2642 34.2472 90.0369 34.0312 88.9915 33.5994C87.9517 33.1676 87.1392 32.5284 86.554 31.6818C85.9744 30.8295 85.6705 29.7756 85.642 28.5199H89.2131C89.2528 29.1051 89.4205 29.5937 89.7159 29.9858C90.017 30.3722 90.4176 30.6648 90.9176 30.8636C91.4233 31.0568 91.9943 31.1534 92.6307 31.1534C93.2557 31.1534 93.7983 31.0625 94.2585 30.8807C94.7244 30.6989 95.0852 30.446 95.3409 30.1222C95.5966 29.7983 95.7244 29.4261 95.7244 29.0057C95.7244 28.6136 95.608 28.2841 95.375 28.017C95.1477 27.75 94.8125 27.5227 94.3693 27.3352C93.9318 27.1477 93.3949 26.9773 92.7585 26.8239L90.858 26.3466C89.3864 25.9886 88.2244 25.429 87.3722 24.6676C86.5199 23.9062 86.0966 22.8807 86.1023 21.5909C86.0966 20.5341 86.3778 19.6108 86.946 18.821C87.5199 18.0312 88.3068 17.4148 89.3068 16.9716C90.3068 16.5284 91.4432 16.3068 92.7159 16.3068C94.0114 16.3068 95.142 16.5284 96.108 16.9716C97.0795 17.4148 97.8352 18.0312 98.375 18.821C98.9148 19.6108 99.1932 20.5256 99.2102 21.5653H95.6733ZM117.332 22.6562H113.599C113.531 22.1733 113.391 21.7443 113.181 21.3693C112.971 20.9886 112.701 20.6648 112.371 20.3977C112.042 20.1307 111.661 19.9261 111.229 19.7841C110.803 19.642 110.34 19.571 109.84 19.571C108.937 19.571 108.15 19.7955 107.479 20.2443C106.809 20.6875 106.289 21.3352 105.92 22.1875C105.55 23.0341 105.366 24.0625 105.366 25.2727C105.366 26.517 105.55 27.5625 105.92 28.4091C106.295 29.2557 106.817 29.8949 107.488 30.3267C108.158 30.7585 108.934 30.9744 109.815 30.9744C110.309 30.9744 110.766 30.9091 111.187 30.7784C111.613 30.6477 111.991 30.4574 112.32 30.2074C112.65 29.9517 112.923 29.642 113.138 29.2784C113.36 28.9148 113.513 28.5 113.599 28.0341L117.332 28.0511C117.235 28.8523 116.994 29.625 116.607 30.3693C116.227 31.108 115.712 31.7699 115.065 32.3551C114.423 32.9347 113.656 33.3949 112.763 33.7358C111.877 34.071 110.874 34.2386 109.755 34.2386C108.198 34.2386 106.806 33.8864 105.579 33.1818C104.357 32.4773 103.391 31.4574 102.681 30.1222C101.977 28.7869 101.624 27.1705 101.624 25.2727C101.624 23.3693 101.982 21.75 102.698 20.4148C103.414 19.0795 104.386 18.0625 105.613 17.3636C106.84 16.6591 108.221 16.3068 109.755 16.3068C110.766 16.3068 111.704 16.4489 112.567 16.733C113.437 17.017 114.207 17.4318 114.877 17.9773C115.548 18.517 116.093 19.179 116.513 19.9631C116.94 20.7472 117.212 21.6449 117.332 22.6562Z" fill="white"/>
<path fill-rule="evenodd" clip-rule="evenodd" d="M19.2774 0.0410116C19.0907 0.110377 18.5444 0.202805 18.0632 0.246204C17.5821 0.289603 17.0657 0.367138 16.9158 0.418526C16.5112 0.557257 13.9313 1.3477 13.8258 1.36531C13.7759 1.37367 13.551 1.48262 13.326 1.60755C13.101 1.7323 12.9158 1.77025 12.9143 1.6918C12.9127 1.61336 12.8514 1.64078 12.778 1.75282C12.7046 1.86485 12.1536 2.20968 11.5538 2.51947C10.29 3.1719 9.4114 3.68161 9.2818 3.8376C9.23182 3.8977 8.70016 4.33677 8.10035 4.81307C7.07721 5.62566 4.73776 7.91709 4.73776 8.10666C4.73776 8.15406 4.41986 8.61819 4.03126 9.13825C3.64265 9.65831 3.05374 10.574 2.72275 11.1733C2.39158 11.7725 2.03478 12.3229 1.92973 12.3963C1.82467 12.4696 1.79631 12.5308 1.86684 12.5324C1.93736 12.5339 1.75342 13.1026 1.45787 13.7963C1.16251 14.4899 0.920768 15.1845 0.920768 15.3397C0.920768 15.495 0.856426 15.6221 0.777905 15.6221C0.699384 15.6221 0.62995 15.765 0.62377 15.9399C0.617408 16.1148 0.474726 16.9522 0.306597 17.8011C-0.0974593 19.8423 -0.103093 24.0562 0.295328 26.1541C1.22976 31.0737 4.09851 35.935 7.81262 38.8923C8.57075 39.4958 9.37377 40.1437 9.59734 40.3321C10.2848 40.9106 14.3842 42.814 15.8252 43.2234C16.575 43.4366 17.5974 43.6543 18.0972 43.7074C18.5971 43.7606 19.102 43.8572 19.2192 43.922C19.6355 44.1528 25.6927 43.8288 27.0036 43.5058C27.7033 43.3333 28.3757 43.1742 28.4978 43.1524C28.62 43.1305 28.7766 43.0556 28.8463 42.9863C28.9157 42.9167 29.0909 42.8599 29.2354 42.8599C29.4875 42.8599 32.9899 41.2843 33.3652 41.0021C33.4652 40.9269 34.2013 40.3836 35.0011 39.7947C35.8008 39.2059 36.8232 38.3677 37.2731 37.932C38.1408 37.0917 39.8177 35.2598 39.8177 35.1523C39.8177 35.1171 40.1127 34.651 40.4734 34.1166C41.0317 33.2894 42.4009 30.7945 42.4516 30.5121C42.4606 30.4622 42.6856 29.7676 42.9517 28.9686C43.2178 28.1697 43.5586 26.9031 43.7091 26.1541C44.0313 24.5494 44.1057 19.8185 43.8316 18.3459C43.7294 17.7966 43.6084 17.1429 43.5628 16.8932C43.517 16.6435 43.3074 15.949 43.0969 15.3497C42.8864 14.7505 42.7241 14.2363 42.7363 14.2068C42.7485 14.1776 42.348 13.3142 41.8464 12.2882C39.7074 7.91309 36.14 4.33932 31.7564 2.18027C30.1166 1.37258 27.6523 0.494793 26.3674 0.260548C25.4797 0.0987556 19.6113 -0.0830111 19.2774 0.0410116ZM15.6371 10.8889C15.9239 11.4244 15.895 33.0935 15.6071 33.3811C15.2732 33.7147 14.5878 33.6405 14.3775 33.2479C14.2539 33.0171 14.1894 29.2016 14.1894 22.1207C14.1894 12.6615 14.2239 11.2955 14.4724 10.9414C14.8208 10.4442 15.3852 10.419 15.6371 10.8889ZM12.5106 22.0297C12.5526 27.223 12.5235 27.9739 12.2703 28.2269C11.9053 28.5915 11.5665 28.5922 11.2032 28.2294C10.9555 27.9817 10.9177 27.1675 10.9177 22.0657C10.9177 16.2123 10.9193 16.1863 11.3183 15.9072C11.6598 15.6682 11.7736 15.6633 12.0907 15.8736C12.451 16.1126 12.4641 16.3041 12.5106 22.0297ZM18.7987 15.957C19.0711 16.2577 19.0971 16.8994 19.054 22.2627L19.006 28.2336L18.4871 28.4159C18.0407 28.5728 17.9202 28.5388 17.6237 28.1731C17.302 27.7762 17.2793 27.3727 17.2793 22.0482C17.2793 16.5905 17.2948 16.333 17.6428 15.9853C18.0949 15.5337 18.4082 15.5261 18.7987 15.957ZM24.9936 15.9099C25.247 16.1629 25.2759 16.9235 25.2337 22.2157L25.1859 28.2336L24.667 28.4159C24.2206 28.5728 24.1001 28.5388 23.8036 28.1731C23.4819 27.7762 23.4592 27.3727 23.4592 22.0482C23.4592 16.5905 23.4747 16.333 23.8227 15.9853C24.2611 15.5473 24.6083 15.525 24.9936 15.9099ZM31.3766 15.8796C31.711 16.1238 31.7321 16.438 31.7822 21.8926C31.8279 26.8673 31.7966 27.7066 31.5509 28.0812C31.2428 28.551 30.7495 28.6434 30.4025 28.2968C30.2418 28.1362 30.1844 26.5161 30.1844 22.1358C30.1844 16.9753 30.222 16.1552 30.4699 15.9074C30.8211 15.5567 30.9296 15.5535 31.3766 15.8796ZM21.8841 18.7554C22.1614 18.958 22.1903 19.3315 22.146 22.1405C22.102 24.9169 22.0576 25.3218 21.7779 25.498C21.5462 25.644 21.3735 25.644 21.1417 25.498C20.862 25.3218 20.8177 24.9169 20.7737 22.1405C20.7293 19.3315 20.7582 18.958 21.0356 18.7554C21.2072 18.6301 21.398 18.5275 21.4598 18.5275C21.5216 18.5275 21.7125 18.6301 21.8841 18.7554ZM28.3668 18.8906C28.6988 19.2224 28.7303 19.4959 28.7303 22.0482C28.7303 24.5207 28.6907 24.8917 28.3859 25.2677C28.0894 25.6334 27.9689 25.6674 27.5225 25.5107L27.0036 25.3286L26.9536 22.1559C26.9092 19.3323 26.9381 18.958 27.2155 18.7554C27.6526 18.436 27.9462 18.4705 28.3668 18.8906ZM34.8064 18.8127C35.2243 19.2304 35.2266 24.6102 34.8089 25.2056C34.4758 25.6808 34.1366 25.7184 33.7416 25.324C33.5053 25.0878 33.4561 24.5265 33.4561 22.0684C33.4561 19.6103 33.5053 19.049 33.7416 18.8127C33.8989 18.6559 34.1384 18.5275 34.274 18.5275C34.4096 18.5275 34.6492 18.6559 34.8064 18.8127ZM9.42721 20.0165C9.56807 20.1572 9.64532 20.8841 9.64532 22.0684C9.64532 24.0146 9.52445 24.3382 8.79741 24.3382C8.18596 24.3382 8.00947 23.8152 8.00947 22.0025C8.00947 20.7599 8.07781 20.301 8.29502 20.0838C8.63527 19.7441 9.1253 19.7149 9.42721 20.0165ZM37.7171 20.2022C38.0076 20.6163 38.1152 22.8919 37.8851 23.75C37.7546 24.2363 37.0199 24.4742 36.6346 24.1546C36.2868 23.8664 36.2427 20.3559 36.5824 20.0165C36.9205 19.6787 37.4059 19.7581 37.7171 20.2022Z" fill="#00B6D6"/>
</svg>
