<svg width="67" height="67" viewBox="0 0 67 67" fill="none" xmlns="http://www.w3.org/2000/svg">
<path fill-rule="evenodd" clip-rule="evenodd" d="M29.3542 0.0624495C29.07 0.168074 28.238 0.308817 27.5054 0.374901C26.7728 0.440986 25.9865 0.559051 25.7581 0.637301C25.142 0.848551 21.2135 2.05218 21.053 2.079C20.9769 2.09172 20.6345 2.25762 20.2919 2.44786C19.9492 2.63781 19.6672 2.6956 19.665 2.57615C19.6625 2.4567 19.5692 2.49846 19.4574 2.66906C19.3456 2.83966 18.5067 3.36475 17.5933 3.83646C15.6689 4.82995 14.331 5.60609 14.1337 5.84361C14.0575 5.93513 13.248 6.60372 12.3346 7.32899C10.7767 8.56635 7.21432 12.0556 7.21432 12.3442C7.21432 12.4164 6.73024 13.1232 6.1385 13.9151C5.54676 14.707 4.65001 16.1014 4.14601 17.0138C3.64173 17.9263 3.09842 18.7644 2.93845 18.8761C2.77847 18.9878 2.7353 19.081 2.84268 19.0835C2.95007 19.0857 2.66998 19.9517 2.21994 21.008C1.77019 22.0642 1.40208 23.1218 1.40208 23.3583C1.40208 23.5947 1.3041 23.7882 1.18454 23.7882C1.06497 23.7882 0.959241 24.0058 0.949831 24.2721C0.940144 24.5384 0.722878 25.8136 0.466863 27.1063C-0.148404 30.2145 -0.156983 36.631 0.449704 39.8255C1.8726 47.3168 6.24091 54.7191 11.8965 59.2223C13.0509 60.1414 14.2737 61.128 14.6141 61.4147C15.6609 62.2957 21.9032 65.194 24.0975 65.8175C25.2392 66.1421 26.796 66.4736 27.5572 66.5544C28.3183 66.6354 29.0872 66.7825 29.2657 66.8812C29.8995 67.2326 39.123 66.7394 41.1191 66.2475C42.1846 65.9848 43.2084 65.7426 43.3944 65.7094C43.5804 65.6759 43.819 65.562 43.925 65.4564C44.0307 65.3505 44.2975 65.2639 44.5175 65.2639C44.9014 65.2639 50.2346 62.8647 50.8061 62.435C50.9583 62.3205 52.0793 61.4932 53.2971 60.5965C54.5149 59.6998 56.0717 58.4235 56.7567 57.7601C58.0781 56.4805 60.6316 53.6911 60.6316 53.5274C60.6316 53.4738 61.0808 52.764 61.6299 51.9502C62.4801 50.6908 64.5651 46.8916 64.6423 46.4616C64.6559 46.3856 64.9985 45.3279 65.4037 44.1113C65.8089 42.8947 66.3278 40.9661 66.557 39.8255C67.0477 37.382 67.1609 30.1782 66.7436 27.9358C66.588 27.0994 66.4037 26.1039 66.3342 25.7237C66.2645 25.3436 65.9453 24.2859 65.6248 23.3735C65.3043 22.461 65.0572 21.6779 65.0757 21.6331C65.0943 21.5886 64.4845 20.2738 63.7206 18.7116C60.4636 12.0495 55.0313 6.60759 48.3564 3.31995C45.8593 2.09006 42.1069 0.753435 40.1503 0.396744C38.7986 0.150378 29.8627 -0.126403 29.3542 0.0624495ZM23.811 16.5808C24.2478 17.3963 24.2038 50.3924 23.7654 50.8304C23.2569 51.3383 22.2132 51.2252 21.893 50.6274C21.7048 50.276 21.6065 44.4661 21.6065 33.6838C21.6065 19.2801 21.6591 17.1999 22.0375 16.6608C22.568 15.9037 23.4274 15.8653 23.811 16.5808ZM19.0503 33.5452C19.1142 41.4533 19.0699 42.5966 18.6844 42.9818C18.1286 43.537 17.6127 43.5381 17.0594 42.9857C16.6822 42.6085 16.6246 41.3687 16.6246 33.6C16.6246 24.6869 16.6271 24.6473 17.2346 24.2223C17.7547 23.8584 17.9279 23.851 18.4109 24.1712C18.9595 24.5351 18.9794 24.8268 19.0503 33.5452ZM28.6252 24.2981C29.0401 24.756 29.0797 25.7331 29.0141 33.9L28.941 42.992L28.1508 43.2696C27.4711 43.5085 27.2876 43.4568 26.8362 42.8999C26.3463 42.2955 26.3117 41.6811 26.3117 33.5734C26.3117 25.2628 26.3352 24.8707 26.8652 24.3412C27.5536 23.6536 28.0307 23.6419 28.6252 24.2981ZM38.0585 24.2265C38.4443 24.6116 38.4883 25.7699 38.4241 33.8284L38.3513 42.992L37.5611 43.2696C36.8814 43.5085 36.6979 43.4568 36.2465 42.8999C35.7566 42.2955 35.722 41.6811 35.722 33.5734C35.722 25.2628 35.7455 24.8707 36.2755 24.3412C36.9431 23.6743 37.4717 23.6403 38.0585 24.2265ZM47.7779 24.1803C48.2872 24.5522 48.3193 25.0306 48.3957 33.3365C48.4652 40.9116 48.4176 42.1896 48.0434 42.76C47.5742 43.4754 46.8231 43.6161 46.2947 43.0882C46.05 42.8438 45.9626 40.3768 45.9626 33.7067C45.9626 25.8487 46.0199 24.6 46.3974 24.2226C46.9321 23.6887 47.0973 23.6837 47.7779 24.1803ZM33.3234 28.5593C33.7458 28.8679 33.7898 29.4367 33.7223 33.7139C33.6553 37.9417 33.5878 38.5583 33.1618 38.8265C32.8089 39.0488 32.546 39.0488 32.1931 38.8265C31.7672 38.5583 31.6996 37.9417 31.6326 33.7139C31.5651 29.4367 31.6091 28.8679 32.0315 28.5593C32.2927 28.3685 32.5834 28.2123 32.6775 28.2123C32.7716 28.2123 33.0622 28.3685 33.3234 28.5593ZM43.1948 28.7653C43.7005 29.2705 43.7484 29.6869 43.7484 33.5734C43.7484 37.3383 43.6881 37.9032 43.2239 38.4759C42.7725 39.0328 42.589 39.0845 41.9092 38.8458L41.1191 38.5685L41.0429 33.7374C40.9754 29.4378 41.0194 28.8679 41.4418 28.5593C42.1074 28.0729 42.5544 28.1255 43.1948 28.7653ZM53.0006 28.6467C53.6369 29.2826 53.6405 37.4747 53.0045 38.3813C52.4972 39.1049 51.9807 39.1622 51.3793 38.5616C51.0195 38.2019 50.9445 37.3472 50.9445 33.6041C50.9445 29.8611 51.0195 29.0064 51.3793 28.6467C51.6187 28.4078 51.9835 28.2123 52.19 28.2123C52.3965 28.2123 52.7612 28.4078 53.0006 28.6467ZM14.3551 30.4796C14.5696 30.6939 14.6872 31.8008 14.6872 33.6041C14.6872 36.5677 14.5031 37.0604 13.3961 37.0604C12.465 37.0604 12.1962 36.2641 12.1962 33.5038C12.1962 31.6116 12.3003 30.9129 12.631 30.5822C13.1492 30.0649 13.8953 30.0204 14.3551 30.4796ZM57.4329 30.7625C57.8752 31.3929 58.039 34.8581 57.6886 36.1648C57.4899 36.9053 56.3712 37.2676 55.7844 36.7809C55.255 36.3421 55.1877 30.9964 55.705 30.4796C56.2198 29.9653 56.9591 30.0862 57.4329 30.7625Z" fill="#00B6D6"/>
</svg>
